<svg id="Layer_1" data-name="Layer 1" xmlns="http://www.w3.org/2000/svg" viewBox="0 0 130.35 151.82"><defs><style>.cls-1{fill:none;}.cls-1,.cls-2{stroke:#231f20;stroke-miterlimit:10;}.cls-2{fill:#231f20;}</style></defs><path class="cls-1" d="M95.68,103l53.11,41.87-74,7.41S124.79,175,125.55,175s47.75,10.47,47.75,10.47l-22.47-40.6,28.6-38.8L139.6,230.94l-10.47-51.07L98.05,107.92l-1.35-3.11,59.38,26.86L196,149.74,127.85,176l-35.49,21.7,23.12-49.46,13-24.44,11.38-34.61,19.49,43.5" transform="translate(-69.9 -83.76)"/><line class="cls-1" x1="9.86" y1="66.86" x2="57.12" y2="43.97"/><line class="cls-1" x1="58.46" y1="88.96" x2="80.93" y2="61.13"/><path class="cls-1" d="M77.12,152.06" transform="translate(-69.9 -83.76)"/><path class="cls-1" d="M128.36,124.16" transform="translate(-69.9 -83.76)"/><circle class="cls-2" cx="5.47" cy="69.18" r="4.97"/><circle class="cls-2" cx="28.08" cy="22.07" r="4.97"/><circle class="cls-2" cx="23.11" cy="113.96" r="4.97"/><circle class="cls-2" cx="58.46" cy="92.86" r="4.97"/><circle class="cls-2" cx="80.34" cy="61.13" r="4.97"/><circle class="cls-2" cx="108.39" cy="23.3" r="4.97"/><circle class="cls-2" cx="124.88" cy="66.1" r="4.97"/><circle class="cls-2" cx="69.69" cy="5.47" r="4.97"/><circle class="cls-2" cx="69.56" cy="146.35" r="4.97"/><circle class="cls-2" cx="102.66" cy="100.9" r="4.97"/></svg>